<svg aria-hidden="true" style="position: absolute; width: 0; height: 0; overflow: hidden;" version="1.1" xmlns="http://www.w3.org/2000/svg" xmlns:xlink="http://www.w3.org/1999/xlink">
<defs>
<symbol id="atb-logo" viewBox="0 0 53 32">
<path fill="#fff" style="fill: var(--color1, #fff)" d="M16 0h20.923c8.837 0 16 7.163 16 16s-7.163 16-16 16h-20.923c-8.837 0-16-7.163-16-16s7.163-16 16-16z"></path>
<path fill="#f84f39" style="fill: var(--color2, #f84f39)" d="M18.239 9.851h3.087v12.020h-3.087v-1.623h-5.523l3.099-2.94h2.424v-3.193l-8.576 8.034v-4.241l8.576-8.058z"></path>
<path fill="#f84f39" style="fill: var(--color2, #f84f39)" d="M24.704 13.137h-2.534v-3.149h11.069l-3.328 3.149h-1.882v8.87h-3.325v-8.87z"></path>
<path fill="#f84f39" style="fill: var(--color2, #f84f39)" d="M40.195 12.89h-6.183v6.226h3.348c0.145 0.005 0.288-0.034 0.411-0.11 0.112-0.070 0.203-0.171 0.261-0.29 0.063-0.136 0.095-0.285 0.093-0.435 0.005-0.212-0.067-0.418-0.203-0.581-0.071-0.077-0.158-0.138-0.255-0.178s-0.202-0.058-0.307-0.054h-2.682v-2.911h3.287c0.433-0.005 0.862 0.086 1.257 0.264 0.393 0.172 0.744 0.427 1.031 0.746 0.302 0.338 0.535 0.732 0.684 1.161 0.174 0.487 0.259 1.001 0.252 1.518-0.001 0.483-0.087 0.963-0.252 1.416-0.161 0.436-0.395 0.842-0.692 1.199-0.281 0.345-0.629 0.631-1.022 0.839-0.382 0.202-0.807 0.308-1.239 0.311h-7.038v-9.12l3.067-2.903h9.248l-3.064 2.903z"></path>
</symbol>
<symbol id="check" viewBox="0 0 32 32">
<path d="M14.3 20.8l7.933-7.9-1.7-1.7-6.233 6.2-2.833-2.8-1.7 1.7 4.533 4.5zM16 28.8c-1.756 0-3.411-0.333-4.967-1s-2.917-1.583-4.083-2.75c-1.167-1.167-2.083-2.528-2.75-4.083s-1-3.211-1-4.967c0-1.778 0.333-3.439 1-4.983s1.583-2.9 2.75-4.067c1.167-1.167 2.528-2.083 4.083-2.75s3.211-1 4.967-1c1.778 0 3.439 0.333 4.983 1s2.9 1.583 4.067 2.75c1.167 1.167 2.083 2.522 2.75 4.067s1 3.206 1 4.983c0 1.756-0.333 3.411-1 4.967s-1.583 2.917-2.75 4.083c-1.167 1.167-2.522 2.083-4.067 2.75s-3.206 1-4.983 1zM16 26.4c2.889 0 5.344-1.011 7.367-3.033s3.033-4.478 3.033-7.367c0-2.889-1.011-5.344-3.033-7.367s-4.478-3.033-7.367-3.033c-2.889 0-5.344 1.011-7.367 3.033s-3.033 4.478-3.033 7.367c0 2.889 1.011 5.344 3.033 7.367s4.478 3.033 7.367 3.033z"></path>
</symbol>
<symbol id="right-star" viewBox="0 0 32 32">
<path d="M19.814 8.415c0.898-0.636 2.102 0.189 1.834 1.256l-1.248 4.969c-0.084 0.335-0.018 0.691 0.182 0.973l2.959 4.182c0.636 0.898-0.189 2.102-1.256 1.834l-4.969-1.248c-0.335-0.084-0.691-0.018-0.973 0.182l-4.182 2.96c-0.898 0.636-2.102-0.189-1.834-1.256l1.248-4.969c0.084-0.335 0.018-0.691-0.182-0.973l-2.96-4.182c-0.636-0.898 0.189-2.102 1.256-1.834l4.969 1.248c0.335 0.084 0.691 0.018 0.973-0.182l4.182-2.96z"></path>
</symbol>
<symbol id="left-star" viewBox="0 0 32 32">
<path d="M12.742 6.388c0.063-0.926 1.245-1.274 1.8-0.529l3.908 5.244c0.174 0.234 0.442 0.38 0.733 0.4l6.525 0.447c0.926 0.063 1.273 1.245 0.529 1.8l-5.244 3.908c-0.234 0.174-0.38 0.442-0.4 0.733l-0.447 6.525c-0.063 0.926-1.245 1.273-1.799 0.529l-3.908-5.244c-0.174-0.234-0.442-0.38-0.733-0.4l-6.525-0.447c-0.926-0.063-1.274-1.245-0.529-1.799l5.244-3.908c0.234-0.174 0.38-0.442 0.4-0.733l0.447-6.525z"></path>
</symbol>
<symbol id="top-star" viewBox="0 0 32 32">
<path d="M12.285 7.094c0.116-1.253 1.728-1.685 2.455-0.658l3.386 4.781c0.229 0.323 0.587 0.53 0.981 0.566l5.833 0.542c1.253 0.116 1.685 1.728 0.658 2.455l-4.781 3.386c-0.323 0.229-0.53 0.587-0.566 0.981l-0.542 5.833c-0.116 1.253-1.728 1.685-2.455 0.658l-3.386-4.781c-0.229-0.323-0.587-0.53-0.981-0.566l-5.833-0.542c-1.253-0.116-1.685-1.728-0.658-2.455l4.781-3.386c0.323-0.229 0.53-0.587 0.566-0.981l0.542-5.833z"></path>
</symbol>
</defs>
</svg>
