<svg width="32" height="32" viewBox="0 0 32 32" fill="none" xmlns="http://www.w3.org/2000/svg">
<path d="M12.742 6.38758C12.8055 5.46144 13.9869 5.11407 14.5415 5.85846L18.4492 11.1027C18.6236 11.3367 18.8915 11.4829 19.1827 11.5029L25.7075 11.9501C26.6336 12.0136 26.981 13.1949 26.2366 13.7496L20.9923 17.6573C20.7583 17.8317 20.6121 18.0996 20.5922 18.3908L20.1449 24.9155C20.0815 25.8417 18.9001 26.189 18.3454 25.4447L14.4377 20.2004C14.2633 19.9664 13.9954 19.8202 13.7042 19.8003L7.17948 19.353C6.25334 19.2896 5.90598 18.1082 6.65036 17.5535L11.8946 13.6458C12.1286 13.4714 12.2748 13.2035 12.2948 12.9123L12.742 6.38758Z" fill="url(#paint0_linear_2020_359)"/>
<defs>
<linearGradient id="paint0_linear_2020_359" x1="21.5484" y1="27.1447" x2="10.5028" y2="-10.4213" gradientUnits="userSpaceOnUse">
<stop stop-color="#FFEF5B"/>
<stop offset="1" stop-color="#F9B345"/>
</linearGradient>
</defs>
</svg>
