<svg width="54" height="54" viewBox="0 0 54 54" fill="none" xmlns="http://www.w3.org/2000/svg">
<path d="M33.4363 14.2002C34.9519 13.1277 36.9837 14.5195 36.5313 16.3201L34.4245 24.7054C34.2823 25.2715 34.3945 25.8715 34.7317 26.348L39.7258 33.4056C40.7983 34.9212 39.4066 36.953 37.6059 36.5006L29.2206 34.3939C28.6545 34.2516 28.0545 34.3638 27.578 34.701L20.5204 39.6952C19.0048 40.7676 16.973 39.3759 17.4254 37.5752L19.5321 29.1899C19.6744 28.6238 19.5622 28.0238 19.225 27.5473L14.2308 20.4897C13.1584 18.9742 14.5501 16.9423 16.3508 17.3947L24.7361 19.5015C25.3022 19.6437 25.9022 19.5315 26.3787 19.1944L33.4363 14.2002Z" fill="url(#paint0_linear_2019_358)"/>
<defs>
<linearGradient id="paint0_linear_2019_358" x1="18.2158" y1="44.2608" x2="52.3578" y2="-5.58459" gradientUnits="userSpaceOnUse">
<stop stop-color="#FFEF5B"/>
<stop offset="1" stop-color="#F9B345"/>
</linearGradient>
</defs>
</svg>
