<svg width="19" height="19" viewBox="0 0 19 19" fill="none" xmlns="http://www.w3.org/2000/svg">
<path d="M7.2942 4.21181C7.36328 3.46804 8.32036 3.21159 8.75208 3.82117L10.7625 6.6599C10.8982 6.85156 11.1109 6.97435 11.3447 6.99607L14.8083 7.31775C15.5521 7.38683 15.8086 8.34392 15.199 8.77563L12.3602 10.786C12.1686 10.9217 12.0458 11.1344 12.0241 11.3683L11.7024 14.8319C11.6333 15.5756 10.6762 15.8321 10.2445 15.2225L8.23412 12.3838C8.09839 12.1921 7.88571 12.0693 7.65187 12.0476L4.18826 11.7259C3.44449 11.6569 3.18803 10.6998 3.79762 10.2681L6.63635 8.25767C6.828 8.12194 6.9508 7.90926 6.97251 7.67542L7.2942 4.21181Z" fill="url(#paint0_linear_2018_356)"/>
<defs>
<linearGradient id="paint0_linear_2018_356" x1="12.494" y1="16.7311" x2="6.2027" y2="-6.74827" gradientUnits="userSpaceOnUse">
<stop stop-color="#FFEF5B"/>
<stop offset="1" stop-color="#F9B345"/>
</linearGradient>
</defs>
</svg>
